HIERARCHY
ROOT Hips
{
 OFFSET 0.000000 0.000000 0.000000
 CHANNELS 6 Xposition Yposition Zposition Yrotation Xrotation Zrotation
 JOINT Chest
 {
  OFFSET 0.000000 10.080317 -0.001081
  CHANNELS 3 Yrotation Xrotation Zrotation
  JOINT Chest2
  {
   OFFSET 0.000000 11.096852 0.001963
   CHANNELS 3 Yrotation Xrotation Zrotation
   JOINT Chest3
   {
    OFFSET 0.000000 10.026525 0.000000
    CHANNELS 3 Yrotation Xrotation Zrotation
    JOINT Chest4
    {
     OFFSET 0.000000 10.026525 0.000000
     CHANNELS 3 Yrotation Xrotation Zrotation
     JOINT Neck
     {
      OFFSET 0.000000 14.108171 0.000000
      CHANNELS 3 Yrotation Xrotation Zrotation
      JOINT Head
      {
       OFFSET 0.000000 9.333493 0.004668
       CHANNELS 3 Yrotation Xrotation Zrotation
       End Site
       {
        OFFSET 0.000000 17.851786 0.002438
       }
      }
     }
     JOINT RightCollar
     {
      OFFSET -3.071622 7.873185 0.000000
      CHANNELS 3 Yrotation Xrotation Zrotation
      JOINT RightShoulder
      {
       OFFSET -14.378659 0.000000 0.000000
       CHANNELS 3 Yrotation Xrotation Zrotation
       JOINT RightElbow
       {
        OFFSET -30.778728 0.000000 0.000000
        CHANNELS 3 Yrotation Xrotation Zrotation
        JOINT RightWrist
        {
         OFFSET -25.164217 0.000000 0.000000
         CHANNELS 3 Yrotation Xrotation Zrotation
         End Site
         {
          OFFSET -18.796788 0.000000 0.000000
         }
        }
       }
      }
     }
     JOINT LeftCollar
     {
      OFFSET 3.071622 7.873185 0.000000
      CHANNELS 3 Yrotation Xrotation Zrotation
      JOINT LeftShoulder
      {
       OFFSET 14.378659 0.000000 0.000000
       CHANNELS 3 Yrotation Xrotation Zrotation
       JOINT LeftElbow
       {
        OFFSET 30.778728 0.000000 0.000000
        CHANNELS 3 Yrotation Xrotation Zrotation
        JOINT LeftWrist
        {
         OFFSET 25.164217 0.000000 0.000000
         CHANNELS 3 Yrotation Xrotation Zrotation
         End Site
         {
          OFFSET 18.796788 0.000000 0.000000
         }
        }
       }
      }
     }
    }
   }
  }
 }
 JOINT RightHip
 {
  OFFSET -8.194923 0.005295 0.000540
  CHANNELS 3 Yrotation Xrotation Zrotation
  JOINT RightKnee
  {
   OFFSET 0.000000 -42.473320 -0.000511
   CHANNELS 3 Yrotation Xrotation Zrotation
   JOINT RightAnkle
   {
    OFFSET 0.000000 -41.474259 -0.000865
    CHANNELS 3 Yrotation Xrotation Zrotation
    JOINT RightToe
    {
     OFFSET 0.000000 -7.354994 16.712725
     CHANNELS 3 Yrotation Xrotation Zrotation
     End Site
     {
      OFFSET 0.000000 -1.553903 6.764158
     }
    }
   }
  }
 }
 JOINT LeftHip
 {
  OFFSET 8.194923 0.005295 0.000540
  CHANNELS 3 Yrotation Xrotation Zrotation
  JOINT LeftKnee
  {
   OFFSET 0.000000 -42.473320 -0.000511
   CHANNELS 3 Yrotation Xrotation Zrotation
   JOINT LeftAnkle
   {
    OFFSET 0.000000 -41.474259 -0.000865
    CHANNELS 3 Yrotation Xrotation Zrotation
    JOINT LeftToe
    {
     OFFSET 0.000000 -7.354994 16.712725
     CHANNELS 3 Yrotation Xrotation Zrotation
     End Site
     {
      OFFSET 0.000000 -1.553903 6.764158
     }
    }
   }
  }
 }
}
MOTION
Frames: 5
Frame Time: 0.016667
58.049097 84.553292 0.727297 -125.242482 -5.810145 5.933456 0.330903 10.297323 5.901739 0.121263 4.466532 2.421429 0.121263 4.466532 2.421429 0.073173 3.350442 1.814263 -11.254132 13.539943 5.930660 -23.472065 -8.911732 15.465711 0.423623 -4.380154 5.898383 8.017245 -11.110709 27.764865 67.018702 8.942854 31.692281 2.297316 2.297222 -47.534003 -18.505475 -8.079607 -10.601371 -11.989668 -42.249788 -73.866215 -110.264743 4.206647 -41.459973 3.548145 15.505103 37.837198 -4.654914 -28.859449 -16.472222 -5.572066 46.677550 -9.702583 -13.631528 -7.655342 16.266862 1.069163 -0.487087 -0.264232 0.151416 -5.639672 15.299788 0.575213 37.058828 -10.286861 5.211956 -20.244320 -9.908932 -0.558018 0.464265 -0.008348
58.059842 84.641598 0.993210 -125.906708 -5.801091 6.050373 0.709777 10.125130 5.889250 0.207013 4.395324 2.491862 0.207013 4.395324 2.491862 0.137233 3.297402 1.866488 -11.472020 13.429113 5.612287 -23.788417 -9.143267 14.979069 1.437037 -3.038843 7.433299 9.075369 -9.213834 30.177329 65.870372 8.621196 32.036745 4.068530 2.163850 -48.013387 -18.266729 -7.979834 -11.134706 -12.212742 -42.592651 -74.467557 -110.559984 3.562399 -41.294105 3.807050 15.510815 37.572615 -4.099158 -28.736655 -16.636364 -5.273278 46.100893 -9.480235 -13.414527 -7.241311 16.287526 0.940531 -0.352842 -0.214663 0.302835 -5.570138 15.016188 0.391628 37.225834 -10.619407 5.607741 -20.607085 -9.738632 -0.830493 0.472807 -0.028855
57.946973 84.694064 1.352479 -126.521662 -5.960855 6.059951 0.975521 10.103922 6.106212 0.237996 4.333644 2.633724 0.237996 4.333644 2.633724 0.159708 3.251330 1.972660 -11.663570 13.267955 5.103897 -23.997047 -9.521243 14.143047 2.446066 -1.737040 8.319024 9.678898 -8.018031 32.795223 64.964804 8.392916 32.631967 5.706858 2.139291 -48.358897 -17.509323 -8.021729 -11.926009 -12.537500 -42.657053 -74.766058 -110.897391 2.825477 -41.389942 3.889201 15.600251 37.789447 -3.486872 -28.400420 -16.810006 -4.926848 45.517204 -9.177740 -13.542732 -6.647509 16.252770 1.032802 -0.302780 -0.037655 0.512955 -5.413676 14.757022 -0.112578 37.398840 -11.006611 6.405619 -20.761164 -9.571580 -1.345701 0.310109 -0.149420
57.830712 84.752920 1.782713 -126.913643 -6.060037 5.968139 1.187702 9.900743 6.409653 0.291172 4.253661 2.776931 0.291172 4.253661 2.776931 0.198924 3.191647 2.079711 -11.926363 13.117472 4.576966 -24.327381 -9.868002 13.294547 2.891475 -0.322908 8.890660 9.806228 -7.660035 35.799318 64.233578 8.479631 33.579157 7.279981 2.026989 -48.576417 -16.713934 -8.032102 -12.662796 -12.990307 -42.371234 -74.715924 -111.154598 1.980333 -41.616871 3.960456 15.719248 37.916257 -3.092090 -28.063077 -16.887944 -4.579017 44.808622 -8.924406 -13.665940 -6.002477 16.248157 1.083490 -0.255994 0.128849 0.531478 -5.431709 14.484102 -0.605244 37.676666 -11.288931 6.683701 -21.058746 -9.391866 -1.459769 0.204332 -0.121368
57.785977 84.824167 2.232239 -127.217755 -5.974436 5.778720 1.398265 9.550210 6.678556 0.379523 4.187777 2.891833 0.379523 4.187777 2.891833 0.264675 3.142712 2.165305 -12.184826 12.980627 4.148289 -24.681513 -10.166573 12.623562 3.123358 0.866991 9.640782 9.424300 -7.690538 38.457772 63.816547 8.567513 34.850385 8.818647 2.099891 -48.689408 -15.998572 -8.160717 -13.113882 -13.595195 -41.859016 -74.468413 -111.285450 0.937135 -41.983793 4.172885 15.752794 37.778508 -2.665383 -27.842906 -16.890401 -4.360546 43.970983 -8.719203 -13.629824 -5.293314 16.295328 0.914097 -0.230461 0.199579 0.568390 -5.658635 14.139779 -1.199841 37.968173 -11.470094 6.145065 -21.596237 -9.074355 -0.981148 0.203489 0.103258
